<?xml version="1.0" encoding="UTF-8"?>
<svg id="Layer_1" xmlns="http://www.w3.org/2000/svg" xmlns:ns0="http://www.w3.org/2000/svg" version="1.1" viewBox="0 0 2520 1780">
  <!-- Generator: Adobe Illustrator 30.8.1, SVG Export Plug-In . SVG Version: 2.1.4 Build 1)  -->
  <defs>
    <style>
      .st0, .st1, .st2, .st3, .st4, .st5, .st6 {
        fill: #111;
      }

      .st1 {
        font-size: 23px;
      }

      .st1, .st2, .st3, .st4, .st5, .st6 {
        isolation: isolate;
      }

      .st1, .st4 {
        font-family: Arial-BoldMT, Arial;
        font-weight: 700;
      }

      .st7 {
        stroke: #b71c1c;
      }

      .st7, .st8, .st9, .st10, .st11, .st12, .st13, .st14, .st15, .st16, .st17, .st18, .st19, .st20, .st21, .st22, .st23, .st24, .st25, .st26, .st27, .st28 {
        fill: none;
      }

      .st7, .st8, .st9, .st11, .st12, .st13, .st14, .st15, .st16, .st17, .st18, .st19, .st20, .st21, .st23, .st24, .st25, .st26, .st27, .st28 {
        stroke-width: 4px;
      }

      .st7, .st8, .st9, .st14, .st15, .st17, .st19, .st20, .st24, .st26, .st27 {
        stroke-linecap: square;
      }

      .st8 {
        stroke: #455a64;
      }

      .st9, .st12 {
        stroke: #d32f2f;
      }

      .st29, .st30, .st31, .st32 {
        stroke-width: 2px;
      }

      .st29, .st22 {
        stroke: #777;
      }

      .st29, .st33, .st32 {
        fill: #fff;
      }

      .st10, .st11, .st33, .st31, .st32 {
        stroke: #111;
      }

      .st10, .st22, .st33 {
        stroke-width: 3px;
      }

      .st13, .st26 {
        stroke: #2e7d32;
      }

      .st2 {
        font-size: 15px;
      }

      .st2, .st3, .st5, .st6 {
        font-family: ArialMT, Arial;
      }

      .st14, .st23 {
        stroke: #c62828;
      }

      .st15 {
        stroke: #209da0;
      }

      .st16, .st17 {
        stroke: #6a1b9a;
      }

      .st18, .st20 {
        stroke: #1565c0;
      }

      .st3 {
        font-size: 13px;
      }

      .st30 {
        fill: #fff7e6;
        stroke: #a45b00;
      }

      .st19, .st21 {
        stroke: #222;
      }

      .st22 {
        stroke-dasharray: 8 7;
      }

      .st34 {
        fill: #fafafa;
        stroke: #bbb;
      }

      .st24, .st25 {
        stroke: #ad5f00;
      }

      .st4 {
        font-size: 38px;
      }

      .st5 {
        font-size: 21px;
      }

      .st27, .st28 {
        stroke: #ef6c00;
      }

      .st31 {
        fill: #e7e7e7;
      }

      .st6 {
        font-size: 17px;
      }
    </style>
  </defs>
  <text class="st4" transform="translate(55 55)"><tspan x="0" y="0">BitBot – verified wiring schematic v4</tspan></text>
  <text class="st5" transform="translate(55 88)"><tspan x="0" y="0">Updated for FM5324GA / IP5306-clone charger and boost module</tspan></text>
  <text class="st3" transform="translate(2079.9531 55)"><tspan x="0" y="0">Generated from wiring(1).md + hardware.md + components(1).md</tspan></text>
  <rect class="st33" x="60" y="160" width="340" height="250"/>
  <text class="st1" transform="translate(78 196)"><tspan x="0" y="0">1S Li-ion battery</tspan></text>
  <text class="st2" transform="translate(78 221)"><tspan x="0" y="0">Protected cell • final size not yet selected</tspan></text>
  <rect class="st33" x="500" y="110" width="430" height="360"/>
  <text class="st1" transform="translate(518 146)"><tspan x="0" y="0">FM5324GA / IP5306-klone</tspan></text>
  <text class="st2" transform="translate(518 171)"><tspan x="0" y="0">USB-C charger + 5 V boost • module is the only charger</tspan></text>
  <rect class="st33" x="1050" y="400" width="440" height="760"/>
  <text class="st1" transform="translate(1068 436)"><tspan x="0" y="0">Seeed Studio XIAO ESP32-S3 Sense</tspan></text>
  <text class="st2" transform="translate(1068 461)"><tspan x="0" y="0">TOP VIEW • USB-C up</tspan></text>
  <rect class="st33" x="1950" y="130" width="470" height="400"/>
  <text class="st1" transform="translate(1968 166)"><tspan x="0" y="0">ST7789 TFT 240×240</tspan></text>
  <text class="st2" transform="translate(1968 191)"><tspan x="0" y="0">7 pins • no CS</tspan></text>
  <rect class="st33" x="1950" y="650" width="470" height="340"/>
  <text class="st1" transform="translate(1968 686)"><tspan x="0" y="0">INMP441</tspan></text>
  <text class="st2" transform="translate(1968 711)"><tspan x="0" y="0">I2S microphone</tspan></text>
  <rect class="st33" x="1950" y="1050" width="470" height="440"/>
  <text class="st1" transform="translate(1968 1086)"><tspan x="0" y="0">MAX98357A</tspan></text>
  <text class="st2" transform="translate(1968 1111)"><tspan x="0" y="0">I2S class-D amplifier</tspan></text>
  <rect class="st33" x="1650" y="1510" width="390" height="160"/>
  <text class="st1" transform="translate(1668 1546)"><tspan x="0" y="0">Speaker</tspan></text>
  <text class="st2" transform="translate(1708.0938 1594.0005)"><tspan x="0" y="0">Differential output • never GND</tspan></text>
  <rect class="st33" x="500" y="1220" width="700" height="270"/>
  <text class="st1" transform="translate(518 1256)"><tspan x="0" y="0">Battery sensing</tspan></text>
  <text class="st2" transform="translate(518 1281)"><tspan x="0" y="0">Measures cell voltage, not the 5 V rail</tspan></text>
  <rect class="st31" x="620" y="265" width="150" height="40" rx="8" ry="8"/>
  <text class="st3" transform="translate(637.9 290)"><tspan x="0" y="0">USB-C CHARGING</tspan></text>
  <rect class="st31" x="1185" y="418" width="150" height="38" rx="8" ry="8"/>
  <text class="st3" transform="translate(1213.4082 443)"><tspan x="0" y="0">USB-C / FLASH</tspan></text>
  <circle class="st32" cx="400" cy="250" r="6"/>
  <text class="st6" transform="translate(374.1 256)"><tspan x="0" y="0">+</tspan></text>
  <circle class="st32" cx="400" cy="330" r="6"/>
  <text class="st6" transform="translate(374.1 336)"><tspan x="0" y="0">−</tspan></text>
  <circle class="st32" cx="500" cy="230" r="6"/>
  <text class="st6" transform="translate(516 236)"><tspan x="0" y="0">BAT+</tspan></text>
  <circle class="st32" cx="500" cy="310" r="6"/>
  <text class="st6" transform="translate(516 316)"><tspan x="0" y="0">BAT−</tspan></text>
  <circle class="st32" cx="500" cy="390" r="6"/>
  <text class="st6" transform="translate(516 396)"><tspan x="0" y="0">K (NC)</tspan></text>
  <circle class="st32" cx="500" cy="430" r="6"/>
  <text class="st6" transform="translate(516 436)"><tspan x="0" y="0">TRIM (NC)</tspan></text>
  <circle class="st32" cx="930" cy="230" r="6"/>
  <text class="st6" transform="translate(842.7 236)"><tspan x="0" y="0">OUT+ 5V</tspan></text>
  <circle class="st32" cx="930" cy="310" r="6"/>
  <text class="st6" transform="translate(816.2 316)"><tspan x="0" y="0">OUT− / GND</tspan></text>
  <text class="st3" transform="translate(584.9 445)"><tspan x="0" y="0">BAT− and OUT− are the same internal node</tspan></text>
  <circle class="st33" cx="980" cy="230" r="7"/>
  <circle class="st33" cx="1060" cy="230" r="7"/>
  <line class="st11" x1="988" y1="223" x2="1042" y2="198"/>
  <text class="st2" transform="translate(975.8 182)"><tspan x="0" y="0">Power switch</tspan></text>
  <circle class="st32" cx="1050" cy="520" r="6"/>
  <text class="st6" transform="translate(1066 526)"><tspan x="0" y="0">D0/GPIO1</tspan></text>
  <circle class="st32" cx="1050" cy="590" r="6"/>
  <text class="st6" transform="translate(1066 596)"><tspan x="0" y="0">D1/GPIO2</tspan></text>
  <circle class="st32" cx="1050" cy="660" r="6"/>
  <text class="st6" transform="translate(1066 666)"><tspan x="0" y="0">D2/GPIO3</tspan></text>
  <circle class="st32" cx="1050" cy="730" r="6"/>
  <text class="st6" transform="translate(1066 736)"><tspan x="0" y="0">D3/GPIO4</tspan></text>
  <circle class="st32" cx="1050" cy="800" r="6"/>
  <text class="st6" transform="translate(1066 806)"><tspan x="0" y="0">D4/GPIO5</tspan></text>
  <circle class="st32" cx="1050" cy="870" r="6"/>
  <text class="st6" transform="translate(1066 876)"><tspan x="0" y="0">D5/GPIO6</tspan></text>
  <circle class="st32" cx="1050" cy="940" r="6"/>
  <text class="st6" transform="translate(1066 946)"><tspan x="0" y="0">D6/GPIO43</tspan></text>
  <circle class="st32" cx="1490" cy="520" r="6"/>
  <text class="st6" transform="translate(1453.2065 526)"><tspan x="0" y="0">5V</tspan></text>
  <circle class="st32" cx="1490" cy="590" r="6"/>
  <text class="st6" transform="translate(1436.2231 596)"><tspan x="0" y="0">GND</tspan></text>
  <circle class="st32" cx="1490" cy="660" r="6"/>
  <text class="st6" transform="translate(1443.752 666)"><tspan x="0" y="0">3V3</tspan></text>
  <circle class="st32" cx="1490" cy="760" r="6"/>
  <text class="st6" transform="translate(1386.1279 766)"><tspan x="0" y="0">D10/GPIO9</tspan></text>
  <circle class="st32" cx="1490" cy="830" r="6"/>
  <text class="st6" transform="translate(1395.5825 836)"><tspan x="0" y="0">D9/GPIO8</tspan></text>
  <circle class="st32" cx="1490" cy="900" r="6"/>
  <text class="st6" transform="translate(1395.5825 906)"><tspan x="0" y="0">D8/GPIO7</tspan></text>
  <circle class="st32" cx="1490" cy="970" r="6"/>
  <text class="st6" transform="translate(1386.1279 976)"><tspan x="0" y="0">D7/GPIO44</tspan></text>
  <circle class="st29" cx="1160" cy="1160" r="6"/>
  <text class="st3" transform="translate(1098.415 1185)"><tspan x="0" y="0">BAT+ underside • NC</tspan></text>
  <circle class="st29" cx="1360" cy="1160" r="6"/>
  <text class="st3" transform="translate(1298.415 1185)"><tspan x="0" y="0">BAT− underside • NC</tspan></text>
  <circle class="st32" cx="1950" cy="225" r="6"/>
  <text class="st6" transform="translate(1966 231)"><tspan x="0" y="0">GND</tspan></text>
  <circle class="st32" cx="1950" cy="265" r="6"/>
  <text class="st6" transform="translate(1966 271)"><tspan x="0" y="0">VCC</tspan></text>
  <circle class="st32" cx="1950" cy="305" r="6"/>
  <text class="st6" transform="translate(1966 311)"><tspan x="0" y="0">SCK</tspan></text>
  <circle class="st32" cx="1950" cy="345" r="6"/>
  <text class="st6" transform="translate(1966 351)"><tspan x="0" y="0">SDA (MOSI)</tspan></text>
  <circle class="st32" cx="1950" cy="385" r="6"/>
  <text class="st6" transform="translate(1966 391)"><tspan x="0" y="0">RES</tspan></text>
  <circle class="st32" cx="1950" cy="425" r="6"/>
  <text class="st6" transform="translate(1966 431)"><tspan x="0" y="0">DC</tspan></text>
  <circle class="st32" cx="1950" cy="465" r="6"/>
  <text class="st6" transform="translate(1966 471)"><tspan x="0" y="0">BLK</tspan></text>
  <circle class="st32" cx="1950" cy="745" r="6"/>
  <text class="st6" transform="translate(1966 751)"><tspan x="0" y="0">VDD</tspan></text>
  <circle class="st32" cx="1950" cy="785" r="6"/>
  <text class="st6" transform="translate(1966 791)"><tspan x="0" y="0">GND</tspan></text>
  <circle class="st32" cx="1950" cy="825" r="6"/>
  <text class="st6" transform="translate(1966 831)"><tspan x="0" y="0">L/R</tspan></text>
  <circle class="st32" cx="1950" cy="865" r="6"/>
  <text class="st6" transform="translate(1966 871)"><tspan x="0" y="0">SCK (BCLK)</tspan></text>
  <circle class="st32" cx="1950" cy="905" r="6"/>
  <text class="st6" transform="translate(1966 911)"><tspan x="0" y="0">WS</tspan></text>
  <circle class="st32" cx="1950" cy="945" r="6"/>
  <text class="st6" transform="translate(1966 951)"><tspan x="0" y="0">SD</tspan></text>
  <circle class="st32" cx="1950" cy="1140" r="6"/>
  <text class="st6" transform="translate(1966 1146)"><tspan x="0" y="0">VIN</tspan></text>
  <circle class="st32" cx="1950" cy="1180" r="6"/>
  <text class="st6" transform="translate(1966 1186)"><tspan x="0" y="0">GND</tspan></text>
  <circle class="st32" cx="1950" cy="1220" r="6"/>
  <text class="st6" transform="translate(1966 1226)"><tspan x="0" y="0">BCLK</tspan></text>
  <circle class="st32" cx="1950" cy="1260" r="6"/>
  <text class="st6" transform="translate(1966 1266)"><tspan x="0" y="0">LRC (WS)</tspan></text>
  <circle class="st32" cx="1950" cy="1300" r="6"/>
  <text class="st6" transform="translate(1966 1306)"><tspan x="0" y="0">DIN</tspan></text>
  <circle class="st32" cx="1950" cy="1340" r="6"/>
  <text class="st6" transform="translate(1966 1346)"><tspan x="0" y="0">GAIN • NC</tspan></text>
  <circle class="st32" cx="1950" cy="1380" r="6"/>
  <text class="st6" transform="translate(1966 1386)"><tspan x="0" y="0">SD • NC</tspan></text>
  <circle class="st32" cx="1950" cy="1420" r="6"/>
  <text class="st6" transform="translate(1966 1426)"><tspan x="0" y="0">OUT+</tspan></text>
  <circle class="st32" cx="1950" cy="1460" r="6"/>
  <text class="st6" transform="translate(1966 1466)"><tspan x="0" y="0">OUT-</tspan></text>
  <circle class="st32" cx="1650" cy="1565" r="6"/>
  <text class="st6" transform="translate(1666 1571)"><tspan x="0" y="0">+</tspan></text>
  <circle class="st32" cx="1650" cy="1615" r="6"/>
  <text class="st6" transform="translate(1666 1621)"><tspan x="0" y="0">−</tspan></text>
  <line class="st22" x1="466" y1="390" x2="492" y2="390"/>
  <line class="st22" x1="466" y1="430" x2="492" y2="430"/>
  <line class="st22" x1="1916" y1="465" x2="1942" y2="465"/>
  <line class="st22" x1="1916" y1="1340" x2="1942" y2="1340"/>
  <line class="st22" x1="1916" y1="1380" x2="1942" y2="1380"/>
  <line class="st22" x1="1016" y1="660" x2="1042" y2="660"/>
  <line class="st22" x1="1016" y1="730" x2="1042" y2="730"/>
  <line class="st22" x1="1148" y1="1160" x2="1172" y2="1160"/>
  <line class="st22" x1="1348" y1="1160" x2="1372" y2="1160"/>
  <line class="st23" x1="560" y1="1310" x2="640" y2="1310"/>
  <rect class="st33" x="640" y="1294" width="90" height="32"/>
  <line class="st25" x1="730" y1="1310" x2="750" y2="1310"/>
  <text class="st3" transform="translate(664.24 1340)"><tspan x="0" y="0">100 kΩ</tspan></text>
  <line class="st25" x1="750" y1="1310" x2="750" y2="1340"/>
  <rect class="st33" x="734" y="1340" width="32" height="70"/>
  <line class="st21" x1="750" y1="1410" x2="750" y2="1430"/>
  <text class="st3" transform="translate(777 1379)"><tspan x="0" y="0">100 kΩ</tspan></text>
  <line class="st25" x1="750" y1="1310" x2="930" y2="1310"/>
  <line class="st25" x1="930" y1="1310" x2="930" y2="1350"/>
  <line class="st10" x1="905" y1="1350" x2="955" y2="1350"/>
  <line class="st10" x1="905" y1="1366" x2="955" y2="1366"/>
  <line class="st21" x1="930" y1="1366" x2="930" y2="1430"/>
  <text class="st3" transform="translate(962 1363)"><tspan x="0" y="0">100 nF</tspan></text>
  <text class="st3" transform="translate(985 1304)"><tspan x="0" y="0">ADC node → D5 / GPIO6 ≈ Vcell/2</tspan></text>
  <line id="cell_pos_bat_to_j" class="st14" x1="400" y1="250" x2="450" y2="250" data-dst="J.CELL_POS" data-net="CELL_POS" data-src="BAT.+"/>
  <polyline id="cell_pos_j_to_module" class="st14" data-dst="PWR.BAT+" data-net="CELL_POS" data-src="J.CELL_POS" points="450 250 450 230 500 230"/>
  <polyline id="cell_pos_j_to_div" class="st14" data-dst="J.DIV_CELL_POS" data-net="CELL_POS" data-src="J.CELL_POS" points="450 250 425 250 425 456 459.7 456 459.7 666 425 666 425 965 430 1310"/>
  <line id="cell_pos_div_to_rtop" class="st14" x1="430" y1="1310" x2="560" y2="1310" data-dst="DIV.R_TOP" data-net="CELL_POS" data-src="J.DIV_CELL_POS"/>
  <line id="cell_neg_bat_to_j" class="st19" x1="400" y1="330" x2="450" y2="330" data-dst="J.CELL_NEG" data-net="CELL_NEG" data-src="BAT.-"/>
  <polyline id="cell_neg_j_to_module" class="st19" data-dst="PWR.BAT-" data-net="CELL_NEG" data-src="J.CELL_NEG" points="450 330 470 330 470 310 500 310"/>
  <polyline id="cell_neg_j_to_div" class="st19" data-dst="J.DIV_CELL_NEG" data-net="CELL_NEG" data-src="J.CELL_NEG" points="450 330 450 360 490 360 490 1430 450 1430"/>
  <polyline id="cell_neg_div_to_rbottom" class="st19" data-dst="DIV.R_BOTTOM" data-net="CELL_NEG" data-src="J.DIV_CELL_NEG" points="450 1430 450 1470 750 1470 750 1430"/>
  <polyline id="cell_neg_div_to_cbottom" class="st19" data-dst="DIV.C_BOTTOM" data-net="CELL_NEG" data-src="J.DIV_CELL_NEG" points="450 1430 430 1430 430 1510.8 930 1510.8 930 1430"/>
  <line id="pwr_outp_to_switch" class="st9" x1="930" y1="230" x2="980" y2="230" data-dst="SW.IN" data-net="5V_BEFORE_SWITCH" data-src="PWR.OUT+"/>
  <polyline id="swout_to_5v_top" class="st9" data-dst="J.5V_TOP" data-net="5V_AFTER_SWITCH" data-src="SW.OUT" points="1060 230 1242.9 230 1242.9 241.9 1860 241.9"/>
  <line id="_x35_v_x5F_top_x5F_to_x5F_xiao_x5F_j" class="st9" x1="1860" y1="241.9" x2="1860" y2="520" data-dst="J.5V_XIAO" data-net="5V_AFTER_SWITCH" data-src="J.5V_TOP"/>
  <line id="_x35_v_x5F_xiao_x5F_j_x5F_to_x5F_amp_x5F_j" class="st9" x1="1860" y1="520" x2="1860" y2="1140" data-dst="J.5V_AMP" data-net="5V_AFTER_SWITCH" data-src="J.5V_XIAO"/>
  <line id="_x35_v_x5F_j_x5F_to_x5F_xiao" class="st9" x1="1860" y1="520" x2="1490" y2="520" data-dst="XIAO.5V" data-net="5V_AFTER_SWITCH" data-src="J.5V_XIAO"/>
  <line id="_x35_v_x5F_j_x5F_to_x5F_amp" class="st9" x1="1860" y1="1140" x2="1950" y2="1140" data-dst="AMP.VIN" data-net="5V_AFTER_SWITCH" data-src="J.5V_AMP"/>
  <line id="pwr_outm_to_gnd_top" class="st19" x1="930" y1="310" x2="1540" y2="310" data-dst="J.GND_TOP" data-net="GND" data-src="PWR.OUT-"/>
  <line id="gnd_top_to_tft_j" class="st19" x1="1540" y1="310" x2="1540" y2="225" data-dst="J.GND_TFT" data-net="GND" data-src="J.GND_TOP"/>
  <line id="gnd_top_to_xiao_j" class="st19" x1="1540" y1="310" x2="1540" y2="590" data-dst="J.GND_XIAO" data-net="GND" data-src="J.GND_TOP"/>
  <line id="gnd_xiao_to_mic_j" class="st19" x1="1540" y1="590" x2="1540" y2="785" data-dst="J.GND_MIC" data-net="GND" data-src="J.GND_XIAO"/>
  <line id="gnd_mic_to_amp_j" class="st19" x1="1540" y1="785" x2="1540" y2="1180" data-dst="J.GND_AMP" data-net="GND" data-src="J.GND_MIC"/>
  <line id="gnd_tft_j_to_tft" class="st19" x1="1540" y1="225" x2="1950" y2="225" data-dst="TFT.GND" data-net="GND" data-src="J.GND_TFT"/>
  <line id="gnd_xiao_j_to_xiao" class="st19" x1="1540" y1="590" x2="1490" y2="590" data-dst="XIAO.GND" data-net="GND" data-src="J.GND_XIAO"/>
  <line id="gnd_mic_j_to_mic" class="st19" x1="1540" y1="785" x2="1950" y2="785" data-dst="MIC.GND" data-net="GND" data-src="J.GND_MIC"/>
  <polyline id="gnd_mic_j_to_lr" class="st19" data-dst="MIC.L/R" data-net="GND" data-src="J.GND_MIC" points="1540 785 1540 811.6 1671.1 811.6 1671.1 824 1950 825"/>
  <line id="gnd_amp_j_to_amp" class="st19" x1="1540" y1="1180" x2="1950" y2="1180" data-dst="AMP.GND" data-net="GND" data-src="J.GND_AMP"/>
  <line id="xiao_3v3_to_j" class="st27" x1="1490" y1="660" x2="1580" y2="660" data-dst="J.3V3_XIAO" data-net="3V3" data-src="XIAO.3V3"/>
  <line id="_x33_v3_x5F_xiao_x5F_to_x5F_tft_x5F_j" class="st27" x1="1580" y1="660" x2="1580" y2="265" data-dst="J.3V3_TFT" data-net="3V3" data-src="J.3V3_XIAO"/>
  <line id="_x33_v3_x5F_xiao_x5F_to_x5F_mic_x5F_j" class="st27" x1="1580" y1="660" x2="1580" y2="745" data-dst="J.3V3_MIC" data-net="3V3" data-src="J.3V3_XIAO"/>
  <line id="_x33_v3_x5F_tft_x5F_j_x5F_to_x5F_tft" class="st27" x1="1580" y1="265" x2="1950" y2="265" data-dst="TFT.VCC" data-net="3V3" data-src="J.3V3_TFT"/>
  <line id="_x33_v3_x5F_mic_x5F_j_x5F_to_x5F_mic" class="st27" x1="1580" y1="745" x2="1950" y2="745" data-dst="MIC.VDD" data-net="3V3" data-src="J.3V3_MIC"/>
  <polyline id="tft_sck" class="st20" data-dst="TFT.SCK" data-net="TFT_SCK" data-src="XIAO.D8/GPIO7" points="1490 900 1620 900 1620 305 1950 305"/>
  <polyline id="tft_mosi" class="st26" data-dst="TFT.SDA" data-net="TFT_MOSI" data-src="XIAO.D10/GPIO9" points="1490 760 1660 760 1660 345 1950 345"/>
  <polyline id="tft_res" class="st20" data-dst="TFT.RES" data-net="TFT_RES" data-src="XIAO.D1/GPIO2" points="1050 590 1000 590 1000 372 1780 372 1780 385 1950 385"/>
  <polyline id="tft_dc" class="st17" data-dst="TFT.DC" data-net="TFT_DC" data-src="XIAO.D4/GPIO5" points="1050 800 960 800 960 400 1745 400 1745 425 1950 425"/>
  <polyline id="bclk_xiao_to_j" class="st17" data-dst="J.BCLK_XIAO" data-net="I2S_BCLK" data-src="XIAO.D6/GPIO43" points="1050 940 988.6 940 988.6 1205.7 1664.7 1205.7 1664.7 905 1740 904"/>
  <line id="bclk_j_to_mic_j" class="st17" x1="1740" y1="940" x2="1740" y2="865" data-dst="J.BCLK_MIC" data-net="I2S_BCLK" data-src="J.BCLK_XIAO"/>
  <line id="bclk_xiao_to_amp_j" class="st17" x1="1740" y1="940" x2="1740" y2="1220" data-dst="J.BCLK_AMP" data-net="I2S_BCLK" data-src="J.BCLK_XIAO"/>
  <line id="bclk_mic_j_to_mic" class="st17" x1="1740" y1="865" x2="1950" y2="865" data-dst="MIC.SCK" data-net="I2S_BCLK" data-src="J.BCLK_MIC"/>
  <line id="bclk_amp_j_to_amp" class="st17" x1="1740" y1="1220" x2="1950" y2="1220" data-dst="AMP.BCLK" data-net="I2S_BCLK" data-src="J.BCLK_AMP"/>
  <line id="ws_xiao_to_j" class="st15" x1="1490" y1="970" x2="1780" y2="970" data-dst="J.WS_XIAO" data-net="I2S_WS" data-src="XIAO.D7/GPIO44"/>
  <line id="ws_j_to_mic_j" class="st15" x1="1780" y1="970" x2="1780" y2="905" data-dst="J.WS_MIC" data-net="I2S_WS" data-src="J.WS_XIAO"/>
  <line id="ws_xiao_to_amp_j" class="st15" x1="1780" y1="970" x2="1780" y2="1260" data-dst="J.WS_AMP" data-net="I2S_WS" data-src="J.WS_XIAO"/>
  <line id="ws_mic_j_to_mic" class="st15" x1="1780" y1="905" x2="1950" y2="905" data-dst="MIC.WS" data-net="I2S_WS" data-src="J.WS_MIC"/>
  <line id="ws_amp_j_to_amp" class="st15" x1="1780" y1="1260" x2="1950" y2="1260" data-dst="AMP.LRC" data-net="I2S_WS" data-src="J.WS_AMP"/>
  <polyline id="mic_sd" class="st26" data-dst="MIC.SD" data-net="MIC_DATA" data-src="XIAO.D9/GPIO8" points="1490 830 1591.4 830 1591.4 860 1700 860 1700 945 1950 945"/>
  <polyline id="amp_din" class="st26" data-dst="AMP.DIN" data-net="AMP_DATA" data-src="XIAO.D0/GPIO1" points="1050 520 920 520 920 1246.5 1494 1246.5 1494 1300 1820 1300 1950 1300"/>
  <polyline id="adc_xiao_to_mid" class="st24" data-dst="DIV.R_MID" data-net="BAT_ADC" data-src="XIAO.D5/GPIO6" points="1050 870 900 870 900 1170 750 1170 750 1310 750 1310"/>
  <polyline id="speaker_plus" class="st7" data-dst="SPK.+" data-net="SPK_PLUS" data-src="AMP.OUT+" points="1950 1420 1605.6 1420 1605.6 1565 1650 1565"/>
  <polyline id="speaker_minus" class="st8" data-dst="SPK.-" data-net="SPK_MINUS" data-src="AMP.OUT-" points="1950 1460 1625.3 1460 1625.3 1615 1650 1615"/>
  <circle class="st0" cx="450" cy="250" r="5"/>
  <circle class="st0" cx="450" cy="330" r="5"/>
  <circle class="st0" cx="1860" cy="241.9" r="5"/>
  <circle class="st0" cx="1860" cy="520" r="5"/>
  <circle class="st0" cx="1860" cy="1140" r="5"/>
  <circle class="st0" cx="1540" cy="310" r="5"/>
  <circle class="st0" cx="1540" cy="590" r="5"/>
  <circle class="st0" cx="1540" cy="225" r="5"/>
  <circle class="st0" cx="1540" cy="785" r="5"/>
  <circle class="st0" cx="1540" cy="1180" r="5"/>
  <circle class="st0" cx="1580" cy="660" r="5"/>
  <circle class="st0" cx="1580" cy="265" r="5"/>
  <circle class="st0" cx="1580" cy="745" r="5"/>
  <circle class="st0" cx="1740" cy="904" r="5"/>
  <circle class="st0" cx="1740" cy="865" r="5"/>
  <circle class="st0" cx="1740" cy="1220" r="5"/>
  <circle class="st0" cx="1780" cy="970" r="5"/>
  <circle class="st0" cx="1780" cy="905" r="5"/>
  <circle class="st0" cx="1780" cy="1260" r="5"/>
  <circle class="st0" cx="430" cy="1310" r="5"/>
  <circle class="st0" cx="450" cy="1430" r="5"/>
  <circle class="st32" cx="400" cy="250" r="4"/>
  <circle class="st32" cx="400" cy="330" r="4"/>
  <circle class="st32" cx="500" cy="230" r="4"/>
  <circle class="st32" cx="500" cy="310" r="4"/>
  <circle class="st29" cx="500" cy="390" r="4"/>
  <circle class="st29" cx="500" cy="430" r="4"/>
  <circle class="st32" cx="930" cy="230" r="4"/>
  <circle class="st32" cx="930" cy="310" r="4"/>
  <circle class="st32" cx="980" cy="230" r="4"/>
  <circle class="st32" cx="1060" cy="230" r="4"/>
  <circle class="st32" cx="1050" cy="520" r="4"/>
  <circle class="st32" cx="1050" cy="590" r="4"/>
  <circle class="st29" cx="1050" cy="660" r="4"/>
  <circle class="st29" cx="1050" cy="730" r="4"/>
  <circle class="st32" cx="1050" cy="800" r="4"/>
  <circle class="st32" cx="1050" cy="870" r="4"/>
  <circle class="st32" cx="1050" cy="940" r="4"/>
  <circle class="st32" cx="1490" cy="520" r="4"/>
  <circle class="st32" cx="1490" cy="590" r="4"/>
  <circle class="st32" cx="1490" cy="660" r="4"/>
  <circle class="st32" cx="1490" cy="760" r="4"/>
  <circle class="st32" cx="1490" cy="830" r="4"/>
  <circle class="st32" cx="1490" cy="900" r="4"/>
  <circle class="st32" cx="1490" cy="970" r="4"/>
  <circle class="st29" cx="1160" cy="1160" r="4"/>
  <circle class="st29" cx="1360" cy="1160" r="4"/>
  <circle class="st32" cx="1950" cy="225" r="4"/>
  <circle class="st32" cx="1950" cy="265" r="4"/>
  <circle class="st32" cx="1950" cy="305" r="4"/>
  <circle class="st32" cx="1950" cy="345" r="4"/>
  <circle class="st32" cx="1950" cy="385" r="4"/>
  <circle class="st32" cx="1950" cy="425" r="4"/>
  <circle class="st29" cx="1950" cy="465" r="4"/>
  <circle class="st32" cx="1950" cy="745" r="4"/>
  <circle class="st32" cx="1950" cy="785" r="4"/>
  <circle class="st32" cx="1950" cy="825" r="4"/>
  <circle class="st32" cx="1950" cy="865" r="4"/>
  <circle class="st32" cx="1950" cy="905" r="4"/>
  <circle class="st32" cx="1950" cy="945" r="4"/>
  <circle class="st32" cx="1950" cy="1140" r="4"/>
  <circle class="st32" cx="1950" cy="1180" r="4"/>
  <circle class="st32" cx="1950" cy="1220" r="4"/>
  <circle class="st32" cx="1950" cy="1260" r="4"/>
  <circle class="st32" cx="1950" cy="1300" r="4"/>
  <circle class="st29" cx="1950" cy="1340" r="4"/>
  <circle class="st29" cx="1950" cy="1380" r="4"/>
  <circle class="st32" cx="1950" cy="1420" r="4"/>
  <circle class="st32" cx="1950" cy="1460" r="4"/>
  <circle class="st32" cx="1650" cy="1565" r="4"/>
  <circle class="st32" cx="1650" cy="1615" r="4"/>
  <g>
    <rect class="st34" x="54" y="495" width="380" height="95"/>
    <text class="st3" transform="translate(69 520)"><tspan x="0" y="0">Wire colors:</tspan></text>
    <line class="st12" x1="69" y1="543" x2="97" y2="543"/>
    <text class="st3" transform="translate(104 548)"><tspan x="0" y="0">5V / cell +</tspan></text>
    <line class="st21" x1="189" y1="543" x2="217" y2="543"/>
    <text class="st3" transform="translate(224 548)"><tspan x="0" y="0">GND</tspan></text>
    <line class="st28" x1="309" y1="543" x2="337" y2="543"/>
    <text class="st3" transform="translate(344 548)"><tspan x="0" y="0">3V3</tspan></text>
    <line class="st18" x1="69" y1="567" x2="97" y2="567"/>
    <text class="st3" transform="translate(104 572)"><tspan x="0" y="0">SPI</tspan></text>
    <line class="st16" x1="189" y1="567" x2="217" y2="567"/>
    <text class="st3" transform="translate(224 572)"><tspan x="0" y="0">I2S</tspan></text>
    <line class="st13" x1="309" y1="567" x2="337" y2="567"/>
    <text class="st3" transform="translate(344 572)"><tspan x="0" y="0">data</tspan></text>
  </g>
  <g>
    <rect class="st30" x="25" y="1550" width="1450" height="200"/>
    <text class="st1" transform="translate(43 1580)"><tspan x="0" y="0">Important before soldering / testing</tspan></text>
    <text class="st3" transform="translate(43 1608)"><tspan x="0" y="0">1. Leave XIAO BAT+ and BAT− completely unconnected. The charger/boost module is the only charger.</tspan></text>
    <text class="st3" transform="translate(43 1628)"><tspan x="0" y="0">2. The charger module USB-C is the normal charging port. XIAO USB-C is used for flashing/testing.</tspan></text>
    <text class="st3" transform="translate(43 1648)"><tspan x="0" y="0">3. Never connect XIAO USB-C while the power switch is ON. Use only one USB-C at a time.</tspan></text>
    <text class="st3" transform="translate(43 1668)"><tspan x="0" y="0">4. OUT+ goes through the switch to XIAO 5V and MAX98357A VIN. OUT− is system GND.</tspan></text>
    <text class="st3" transform="translate(43 1688)"><tspan x="0" y="0">5. Battery sensingen tas fra selve cellen (BAT+/BAT−), ikke fra 5 V-utgangen.</tspan></text>
    <text class="st3" transform="translate(43 1708)"><tspan x="0" y="0">6. 10440/≈350 mAh is still under review: measure actual charge current before using the cell.</tspan></text>
    <text class="st3" transform="translate(43 1728)"><tspan x="0" y="0">7. Keep the SD-card slot empty. Leave TFT BLK open; use 3V3 only if the backlight stays off.</tspan></text>
  </g>
  <text class="st3" transform="translate(1580 1740)"><tspan x="0" y="0">Crossings without a junction dot are 90° crossings only and are not electrically connected.</tspan></text>
  <circle class="st0" cx="1540" cy="812" r="5"/>
  <circle class="st0" cx="750" cy="1310" r="5"/>
</svg>